# xmcd CD database file
#
# Track frame offsets:
#	150
#	20812
#	33305
#	47710
#	68422
#	81512
#	94415
#	108255
#	112942
#	115930
#	118755
#	123335
#	127452
#	131485
#	135397
#	139360
#
# Disc length: 1908 seconds
#
# Revision: 0
# Processed by: cddbd v1.5PL3 Copyright (c) Steve Scherf et al.
# Submitted via: cdripper 1.0.7
#
DISCID=eb077210
DTITLE=Various Artist - Brand New Country CD Compilation #3
DYEAR=1993
DGENRE=Country
TTITLE0=Pretty Eyes - Mark Koenig
TTITLE1=Blue Collar Dollar - Laura Mattsson
TTITLE2=Come A Little Closer - Desert Rose Band
TTITLE3=Fallin' Out Of Love - Reba McEntire
TTITLE4=Liza Jane - Vince Gill
TTITLE5=Everynow And Then - Marty Brown
TTITLE6=You Know Me Better Than That - George Strait
TTITLE7=An Open-ended Interview With Kelly Willis
TTITLE8=An Open-ended Interview With Kelly Willis
TTITLE9=An Open-ended Interview With Kelly Willis
TTITLE10=An Open-ended Interview With Kelly Willis
TTITLE11=An Open-ended Interview With Kelly Willis
TTITLE12=An Open-ended Interview With Kelly Willis
TTITLE13=An Open-ended Interview With Kelly Willis
TTITLE14=An Open-ended Interview With Kelly Willis
TTITLE15=An Open-ended Interview With Kelly Willis
EXTD=YEAR: 1993
EXTT0=
EXTT1=
EXTT2=
EXTT3=
EXTT4=
EXTT5=
EXTT6=
EXTT7=
EXTT8=
EXTT9=
EXTT10=
EXTT11=
EXTT12=
EXTT13=
EXTT14=
EXTT15=
PLAYORDER=
